<svg width="25" height="24" viewBox="0 0 25 24" fill="none" xmlns="http://www.w3.org/2000/svg">
<path d="M19.3123 18.9999V9.79863L12.2081 4.27662L5.10398 9.79863V18.9999H19.3123ZM21.3421 19.9999C21.3421 20.5522 20.8877 20.9999 20.3272 20.9999H4.0891C3.5286 20.9999 3.07422 20.5522 3.07422 19.9999V9.31379C3.07422 9.00761 3.21658 8.7183 3.46053 8.52867L11.5796 2.21781C11.9481 1.9313 12.4682 1.9313 12.8367 2.21781L20.9557 8.52867C21.1997 8.7183 21.3421 9.00761 21.3421 9.31379V19.9999ZM7.13374 11.9999H9.1635C9.1635 13.6568 10.5266 14.9999 12.2081 14.9999C13.8897 14.9999 15.2528 13.6568 15.2528 11.9999H17.2826C17.2826 14.7613 15.0106 16.9999 12.2081 16.9999C9.40563 16.9999 7.13374 14.7613 7.13374 11.9999Z" fill="#6B7280"/>
</svg>
